<svg viewBox="10,0,147,157" xmlns="http://www.w3.org/2000/svg" xmlns:xlink="http://www.w3.org/1999/xlink" overflow="hidden"><defs><filter id="fx0" x="-10%" y="-10%" width="120%" height="120%" filterUnits="userSpaceOnUse" primitiveUnits="userSpaceOnUse"><feComponentTransfer color-interpolation-filters="sRGB"><feFuncR type="discrete" tableValues="0 0"/><feFuncG type="discrete" tableValues="0 0"/><feFuncB type="discrete" tableValues="0 0"/><feFuncA type="linear" slope="0.74902" intercept="0"/></feComponentTransfer><feGaussianBlur stdDeviation="5.55556 5.58694"/></filter><filter id="fx1" x="-10%" y="-10%" width="120%" height="120%" filterUnits="userSpaceOnUse" primitiveUnits="userSpaceOnUse"><feComponentTransfer color-interpolation-filters="sRGB"><feFuncR type="discrete" tableValues="0 0"/><feFuncG type="discrete" tableValues="0 0"/><feFuncB type="discrete" tableValues="0 0"/><feFuncA type="linear" slope="0.368627" intercept="0"/></feComponentTransfer><feGaussianBlur stdDeviation="4.88889 4.88889"/></filter><clipPath id="clip2"><rect x="404" y="250" width="167" height="175"/></clipPath><radialGradient cx="1304925" cy="0" r="1845443" fx="1304925" gradientUnits="userSpaceOnUse" spreadMethod="pad" id="fill3" gradientTransform="matrix(0.000104987 0 0 0.000104987 415 251)"><stop offset="0" stop-color="#57DBFF"/><stop offset="0.22" stop-color="#57DBFF"/><stop offset="0.38" stop-color="#01C9FF"/><stop offset="0.67" stop-color="#0070C4"/><stop offset="0.85" stop-color="#6A48C0"/><stop offset="1" stop-color="#6A48C0"/></radialGradient><clipPath id="clip4"><path d="M490.563 292.007C490.563 292.007 479.664 326.907 474.12 336.453 468.556 346.033 451.007 376.162 439.202 375.909 429.593 375.705 426.785 362.332 426.829 362.466 426.195 377.74 428.747 384.271 438.722 388.361 450.025 392.995 475.468 377.079 495.972 348.507 506.964 333.185 515.915 308.378 515.915 308.378ZM404 250 571 250 571 425 404 425Z" fill-rule="evenodd" clip-rule="evenodd"/></clipPath><clipPath id="clip5"><rect x="0" y="0" width="84" height="89"/></clipPath><radialGradient cx="419020" cy="469017" r="629054" fx="838185" fy="-35.2812" gradientUnits="userSpaceOnUse" spreadMethod="pad" id="fill6" gradientTransform="scale(0.000104987 0.000104987)"><stop offset="0" stop-color="#F2B800"/><stop offset="0.3" stop-color="#F2B800"/><stop offset="0.77" stop-color="#FFFF00"/><stop offset="1" stop-color="#FFFF00"/></radialGradient><radialGradient cx="716457" cy="0" r="1011081" fx="716457" gradientUnits="userSpaceOnUse" spreadMethod="pad" id="fill7" gradientTransform="matrix(0.000103362 -1.84012e-05 1.84012e-05 0.000103362 454.263 272.227)"><stop offset="0" stop-color="#FFC000"/><stop offset="0.37" stop-color="#FFC000"/><stop offset="0.66" stop-color="#C55A11"/><stop offset="1" stop-color="#C55A11"/></radialGradient></defs><g clip-path="url(#clip2)" transform="translate(-404 -250)"><path d="M415 319.5C415 281.668 445.668 251 483.5 251 521.331 251 552 281.668 552 319.5 552 357.331 521.331 388 483.5 388 445.668 388 415 357.331 415 319.5Z" fill="url(#fill3)" fill-rule="evenodd"/><g clip-path="url(#clip4)"><g filter="url(#fx0)" transform="matrix(2 0 0 1.98876 403 249)"><g clip-path="url(#clip5)" transform="matrix(1 0 0 1 0 1.42109e-14)"><path d="M29.3452 0.775452C36.8204-0.825433 40.2547-0.118917 43.1124 4.45278 46.3501 9.63324 40.6515 23.5173 28.2981 36.0345 21.6734 42.7455 10.2007 49.2504 10.2007 49.2504L-0.00756026 38.1356C-0.00756026 38.1356 16.2754 29.8186 20.5129 26.2808 24.7655 22.7299 38.1358 11.5375 37.015 5.74029 36.1041 1.02116 29.2752 0.765424 29.3452 0.775452Z" stroke="#000000" stroke-width="4.80648" stroke-linecap="round" stroke-linejoin="round" stroke-miterlimit="10" stroke-opacity="0" fill="#FF0000" fill-rule="evenodd" transform="matrix(0.168691 0.991075 0.985507 -0.169644 14.0784 26.705)"/></g></g></g><path d="M58.6809 1.55066C73.629-1.6506 80.4965-0.237795 86.211 8.90415 92.6853 19.2634 81.2901 47.0271 56.5871 72.0574 43.3398 85.4774 20.3981 98.485 20.3981 98.485L-0.0151181 76.2591C-0.0151181 76.2591 32.5455 59.6277 41.0192 52.5532 49.5231 45.4525 76.2595 23.0713 74.0183 11.4787 72.1966 2.04199 58.5411 1.5306 58.6809 1.55066Z" stroke="#000000" stroke-width="9.55895" stroke-linecap="round" stroke-linejoin="round" stroke-miterlimit="10" stroke-opacity="0" fill="url(#fill6)" fill-rule="evenodd" transform="matrix(0.168718 0.985664 0.985664 -0.168718 415.4 304.888)"/><g filter="url(#fx1)" transform="translate(439 254)"><g><path d="M88.5863 42.5414C89.9836 40.7702 90.143 38.4582 89.044 36.5607 87.9449 34.6629 85.8705 33.7002 83.6571 34.0943L66.6872 37.1154C64.4738 37.5094 62.3665 36.3622 61.2675 34.4644L52.9956 19.0002C51.8966 17.1026 49.7893 15.9554 47.5759 16.3494 45.3624 16.7435 43.7806 18.5475 43.404 20.7078L40.9775 38.0766C40.6009 40.237 39.0191 42.0411 36.8056 42.4351L19.8358 45.4562C17.8067 45.8174 16.0076 47.4697 15.631 49.6302 15.2544 51.7904 16.2017 53.9054 18.1246 55.0855L24.9795 59.3839 33.7242 64.6778C34.5934 65.2844 35.2782 65.9237 35.6267 66.8131 35.9755 67.7026 36.1725 68.8093 36.1521 69.7644L34.0742 88.0226C33.6976 90.183 34.8295 92.2651 36.9039 93.2278 38.7939 94.2235 41.1917 93.7967 42.8393 92.3615L55.7567 79.405C57.187 77.8182 59.5848 77.3913 61.4749 78.3871L78.0702 86.0895C80.1446 87.0522 82.3252 86.4738 83.9399 84.8541 85.37 83.2675 85.7138 80.9227 84.7993 78.9921L76.7321 62.54C75.8505 60.7939 76.0097 58.482 77.2555 56.928L88.5863 42.5414Z" fill="#FF0000" fill-rule="evenodd"/></g></g><path d="M532.3 291.827C533.698 290.056 533.857 287.744 532.758 285.847 531.659 283.949 529.585 282.986 527.371 283.38L510.401 286.401C508.188 286.795 506.081 285.648 504.982 283.75L496.71 268.286C495.611 266.389 493.503 265.241 491.29 265.635 489.076 266.029 487.495 267.833 487.118 269.994L484.692 287.363C484.315 289.523 482.733 291.327 480.52 291.721L463.55 294.742C461.521 295.103 459.722 296.756 459.345 298.916 458.968 301.076 459.916 303.191 461.839 304.371L468.694 308.67 477.438 313.964C478.307 314.57 478.992 315.21 479.341 316.099 479.69 316.989 479.887 318.095 479.866 319.05L477.788 337.309C477.412 339.469 478.544 341.551 480.618 342.514 482.508 343.509 484.906 343.083 486.553 341.647L499.471 328.691C500.901 327.104 503.299 326.677 505.189 327.673L521.784 335.375C523.859 336.338 526.039 335.76 527.654 334.14 529.084 332.553 529.428 330.209 528.513 328.278L520.446 311.826C519.565 310.08 519.724 307.768 520.969 306.214L532.3 291.827Z" fill="url(#fill7)" fill-rule="evenodd"/></g></svg>